<svg width="265" height="166" viewBox="0 0 265 166" fill="none" xmlns="http://www.w3.org/2000/svg">
<path fill-rule="evenodd" clip-rule="evenodd" d="M132.596 0C140.875 0 148.663 2.05112 155.526 5.70379C149.834 3.87745 143.761 2.89404 137.471 2.89404C115.957 2.89404 97.0574 14.414 86.2461 31.8064C93.844 13.1215 111.736 0 132.596 0Z" fill="white"/>
<path fill-rule="evenodd" clip-rule="evenodd" d="M135.21 5.45166C158.793 5.45166 178.755 21.2986 185.699 43.2428C175.732 22.3945 154.899 8.03663 130.853 8.03663C123.99 8.03663 117.4 9.18863 111.245 11.3521C118.435 7.58707 126.577 5.45166 135.21 5.45166Z" fill="white"/>
<path fill-rule="evenodd" clip-rule="evenodd" d="M134.721 11.4644C149.073 11.4644 161.981 17.8706 170.914 28.0419C161.028 19.8093 148.447 14.8642 134.721 14.8642C121.024 14.8642 108.442 19.8093 98.5566 28.0419C107.462 17.8706 120.37 11.4644 134.721 11.4644Z" fill="white"/>
<path fill-rule="evenodd" clip-rule="evenodd" d="M120.45 79.7969H145.258C144.741 54.8464 181.26 46.6138 192.398 44.647C174.942 45.0403 146.429 45.9676 132.84 60.1568C119.251 45.9395 90.7388 45.0122 73.2827 44.647C84.4481 46.6138 120.967 54.8464 120.45 79.7969Z" fill="white"/>
<path fill-rule="evenodd" clip-rule="evenodd" d="M132.868 35.5151C136.844 35.5151 140.057 38.8306 140.057 42.9329C140.057 47.0351 136.844 50.3506 132.868 50.3506C128.892 50.3506 125.679 47.0351 125.679 42.9329C125.679 38.8306 128.892 35.5151 132.868 35.5151Z" fill="white"/>
<path d="M237.413 133.885V101.938H248.851C253.045 101.938 256.149 102.696 258.165 104.214C260.153 105.731 261.16 108.063 261.16 111.21C261.16 112.98 260.725 114.497 259.826 115.734C258.954 116.998 257.593 118.038 255.768 118.909C256.531 119.19 257.239 119.667 257.838 120.37C258.437 121.044 258.982 121.915 259.445 122.955L264.401 133.913H255.659L251.711 124.697C251.084 123.236 250.349 122.224 249.532 121.69C248.715 121.128 247.571 120.875 246.073 120.875C245.964 120.875 245.801 120.875 245.61 120.904C245.42 120.932 245.256 120.932 245.175 120.932V133.941H237.413V133.885ZM248.906 115.031C250.349 115.031 251.411 114.722 252.119 114.104C252.827 113.486 253.181 112.559 253.181 111.294C253.181 110.086 252.827 109.187 252.092 108.541C251.357 107.922 250.322 107.585 248.933 107.585H245.202V115.031H248.906ZM211.27 133.885V101.938H231.994V107.838H219.031V114.329H231.422V120.257H219.031V127.872H232.348V133.856H211.27V133.885ZM190.737 134.166L176.685 101.938H184.991L192.643 120.51L200.813 101.938H209.201L194.086 134.166H190.737ZM144.578 117.953C144.578 115.565 144.986 113.373 145.803 111.35C146.62 109.327 147.818 107.529 149.425 105.956C151.005 104.438 152.775 103.286 154.763 102.556C156.751 101.797 158.956 101.432 161.407 101.432C163.886 101.432 166.091 101.797 168.107 102.556C170.095 103.314 171.865 104.438 173.444 105.956C175.051 107.529 176.249 109.327 177.066 111.35C177.883 113.373 178.292 115.565 178.292 117.953C178.292 120.313 177.883 122.505 177.066 124.528C176.249 126.551 175.051 128.321 173.444 129.895C171.865 131.412 170.067 132.564 168.079 133.323C166.091 134.081 163.858 134.475 161.435 134.475C159.011 134.475 156.805 134.081 154.817 133.323C152.829 132.564 151.059 131.412 149.452 129.867C147.846 128.321 146.647 126.523 145.83 124.5C144.986 122.477 144.578 120.313 144.578 117.953ZM152.557 117.953C152.557 120.791 153.401 123.151 155.035 124.978C156.696 126.804 158.82 127.731 161.38 127.731C163.967 127.731 166.091 126.804 167.753 124.978C169.414 123.151 170.231 120.791 170.231 117.953C170.231 115.087 169.387 112.727 167.753 110.901C166.091 109.046 163.967 108.119 161.38 108.119C158.82 108.119 156.696 109.046 155.035 110.901C153.374 112.727 152.557 115.087 152.557 117.953ZM141.582 131.215C139.73 132.311 137.824 133.126 135.863 133.66C133.902 134.194 131.86 134.447 129.736 134.447C127.312 134.447 125.079 134.053 123.064 133.295C121.021 132.536 119.251 131.412 117.726 129.923C116.174 128.377 114.976 126.579 114.159 124.528C113.342 122.477 112.933 120.257 112.933 117.897C112.933 112.924 114.54 108.934 117.754 105.899C120.967 102.865 125.215 101.348 130.471 101.348C132.35 101.348 134.202 101.544 135.999 101.994C137.797 102.415 139.567 103.09 141.337 103.961V111.463C139.621 110.311 137.906 109.468 136.19 108.906C134.447 108.344 132.731 108.063 131.016 108.063C127.884 108.063 125.433 108.934 123.636 110.704C121.838 112.446 120.94 114.863 120.94 117.953C120.94 120.932 121.784 123.32 123.5 125.118C125.188 126.888 127.503 127.759 130.389 127.759C132.241 127.759 134.12 127.422 135.999 126.748C137.878 126.073 139.73 125.062 141.609 123.741V131.215H141.582ZM100.298 133.885V101.938H108.277V133.885H100.298ZM65.1403 133.885V101.938H76.7686C80.0909 101.938 82.678 102.191 84.5026 102.724C86.3272 103.23 88.0156 104.101 89.5407 105.281C91.5286 106.827 93.0264 108.653 94.034 110.788C95.0416 112.924 95.559 115.312 95.559 117.897C95.559 120.763 94.9327 123.32 93.7072 125.652C92.4545 127.984 90.6572 129.923 88.3152 131.468C86.9808 132.339 85.5102 132.957 83.9035 133.323C82.2968 133.688 79.9003 133.885 76.7413 133.885H65.1403ZM72.9016 108.4V127.45H78.6749C81.3164 127.45 83.4406 126.551 85.1017 124.781C86.7629 123.011 87.5799 120.707 87.5799 117.897C87.5799 115.087 86.7357 112.811 85.1017 111.041C83.4406 109.271 81.2892 108.4 78.6749 108.4H72.9016ZM39.6234 133.885V101.938H60.3473V107.838H47.3847V114.329H59.7755V120.257H47.3847V127.872H60.7286V133.856H39.6234V133.885ZM0 133.885V101.938H6.83537L16.7753 114.806L26.7696 101.938H33.605V133.885H25.9799V114.104L16.7753 125.792L7.67958 114.132V133.913H0V133.885Z" fill="white"/>
<path d="M0.0556641 165.691V146.641H2.66999V154.845H13.3179V146.641H15.9595V165.691H13.3179V157.402H2.66999V165.691H0.0556641Z" fill="white"/>
<path d="M35.7559 156.082C35.7559 154.817 36.001 153.581 36.5184 152.373C37.0086 151.165 37.7438 150.125 38.6697 149.198C39.6229 148.271 40.685 147.54 41.856 147.063C43.0542 146.585 44.3069 146.332 45.614 146.332C46.9484 146.332 48.2284 146.585 49.4266 147.063C50.6248 147.568 51.6869 148.271 52.6128 149.198C53.566 150.153 54.3012 151.249 54.7914 152.401C55.2816 153.581 55.5267 154.874 55.5267 156.25C55.5267 157.543 55.2816 158.807 54.7642 159.987C54.274 161.196 53.566 162.235 52.64 163.134C51.6869 164.09 50.5976 164.792 49.4266 165.27C48.2284 165.747 46.9757 166 45.6413 166C44.3341 166 43.0814 165.747 41.856 165.242C40.6577 164.736 39.5956 164.033 38.6697 163.106C37.7166 162.151 37.0086 161.083 36.5184 159.875C36.001 158.723 35.7559 157.459 35.7559 156.082ZM38.5608 156.194C38.5608 157.178 38.7242 158.105 39.0782 158.976C39.4323 159.847 39.9497 160.634 40.6033 161.308C41.2568 161.982 41.9921 162.516 42.8636 162.881C43.735 163.247 44.6337 163.443 45.5868 163.443C46.54 163.443 47.4659 163.275 48.3101 162.91C49.1543 162.544 49.9168 162.01 50.5976 161.336C51.2512 160.662 51.7686 159.875 52.1226 159.004C52.4766 158.133 52.6673 157.206 52.6673 156.222C52.6673 155.239 52.5039 154.34 52.1499 153.469C51.7958 152.598 51.2784 151.811 50.5976 151.081C49.944 150.378 49.1815 149.844 48.3373 149.479C47.4931 149.114 46.5944 148.917 45.6413 148.917C44.7154 148.917 43.8439 149.114 42.9725 149.479C42.1283 149.844 41.3385 150.378 40.6577 151.081C40.0041 151.755 39.4867 152.513 39.1327 153.413C38.7514 154.256 38.5608 155.211 38.5608 156.194Z" fill="white"/>
<path d="M74.3459 164.201V160.605C75.1901 161.588 75.9798 162.319 76.7423 162.74C77.5048 163.162 78.3218 163.386 79.166 163.386C80.0919 163.386 80.8 163.162 81.3174 162.712C81.8348 162.262 82.1071 161.672 82.1071 160.914C82.1071 160.296 81.9437 159.762 81.5625 159.284C81.2085 158.806 80.3642 158.132 79.0026 157.261C76.9057 155.856 75.5986 154.788 75.0539 154.03C74.5093 153.271 74.2642 152.344 74.2642 151.304C74.2642 149.815 74.7816 148.607 75.7892 147.652C76.7968 146.696 78.1312 146.219 79.7107 146.219C80.4187 146.219 81.1268 146.331 81.8348 146.528C82.5156 146.753 83.2237 147.062 83.9317 147.511V150.602C83.1147 149.928 82.3795 149.45 81.6986 149.141C81.0178 148.832 80.337 148.691 79.629 148.691C78.7848 148.691 78.1312 148.888 77.5865 149.309C77.0691 149.731 76.7968 150.265 76.7968 150.939C76.7968 151.894 77.8861 153.046 80.0647 154.451L80.4732 154.704C82.2433 155.828 83.4143 156.84 83.9589 157.711C84.5036 158.582 84.7759 159.649 84.7759 160.942C84.7759 162.403 84.2585 163.583 83.2509 164.538C82.2161 165.494 80.9089 165.971 79.3294 165.971C78.3218 165.971 77.4231 165.831 76.6334 165.522C75.8709 165.297 75.0811 164.847 74.3459 164.201Z" fill="white"/>
<path d="M104.628 165.691V146.613H110.401C112.335 146.613 113.833 147.09 114.922 148.046C116.011 149.001 116.556 150.35 116.556 152.064C116.556 153.75 116.011 155.098 114.922 156.054C113.833 157.009 112.335 157.487 110.401 157.487H107.269V165.691H104.628ZM107.269 155.07H110.129C111.409 155.07 112.335 154.845 112.934 154.368C113.506 153.89 113.805 153.131 113.805 152.092C113.805 151.052 113.506 150.294 112.934 149.816C112.362 149.338 111.436 149.085 110.129 149.085H107.269V155.07Z" fill="white"/>
<path d="M138.885 146.641H136.243V165.719H138.885V146.641Z" fill="white"/>
<path d="M164.785 165.691V149.113H158.004V146.641H174.208V149.113H167.427V165.691H164.785Z" fill="white"/>
<path d="M188.693 165.691L196.7 146.613H198.633L206.749 165.691H204.025L201.656 160.071H193.786L191.444 165.691H188.693ZM194.793 157.627H200.54L197.626 150.771L194.793 157.627Z" fill="white"/>
<path d="M225.052 165.691V146.641H227.693V163.246H236.489V165.691H225.052Z" fill="white"/>
<path d="M254.543 164.202V160.606C255.387 161.589 256.177 162.32 256.939 162.741C257.702 163.163 258.519 163.387 259.363 163.387C260.289 163.387 260.997 163.163 261.542 162.713C262.059 162.263 262.331 161.673 262.331 160.915C262.331 160.297 262.168 159.763 261.787 159.285C261.433 158.807 260.588 158.133 259.227 157.262C257.13 155.857 255.823 154.789 255.278 154.031C254.761 153.272 254.488 152.345 254.488 151.305C254.488 149.816 255.006 148.608 256.013 147.653C257.021 146.697 258.355 146.22 259.935 146.22C260.643 146.22 261.351 146.332 262.032 146.529C262.713 146.754 263.421 147.063 264.129 147.512V150.603C263.312 149.929 262.576 149.451 261.896 149.142C261.215 148.833 260.534 148.692 259.853 148.692C259.036 148.692 258.355 148.889 257.811 149.31C257.293 149.732 257.021 150.266 257.021 150.94C257.021 151.895 258.11 153.047 260.289 154.452L260.697 154.705C262.467 155.829 263.638 156.841 264.183 157.712C264.728 158.583 265 159.65 265 160.943C265 162.404 264.483 163.584 263.475 164.539C262.44 165.495 261.133 165.972 259.554 165.972C258.546 165.972 257.647 165.832 256.858 165.523C256.068 165.298 255.305 164.848 254.543 164.202Z" fill="white"/>
</svg>
